<?xml version="1.0" encoding="utf-8"?>
<svg version="1.0" width="506.000000pt" height="686.000000pt" viewBox="0 0 506.000000 686.000000" preserveAspectRatio="xMidYMid meet" xmlns="http://www.w3.org/2000/svg">
  <g transform="translate(0.000000,686.000000) scale(0.100000,-0.100000)" fill="#000000" stroke="none">
    <path d="M922 5138 c-345 -1062 -379 -1173 -364 -1184 9 -6 280 -203 602 -437 l585 -426 27 32 c15 18 28 37 28 43 0 5 -257 196 -570 424 -314 228 -569 419 -567 425 2 5 163 502 358 1102 l354 1093 1160 0 1160 0 354 -1092 c195 -601 356 -1098 358 -1104 2 -5 -250 -194 -560 -420 l-564 -409 25 -37 c14 -21 29 -38 33 -38 6 0 993 711 1186 854 1 1 -146 458 -328 1016 -181 558 -352 1086 -380 1173 l-51 157 -1232 0 -1233 0 -381 -1172z" style="stroke: rgb(48, 104, 151); fill: rgb(48, 104, 151);"/>
    <path d="M1591 5808 c-5 -18 -127 -394 -270 -835 -144 -442 -261 -805 -261 -807 0 -5 90 -29 94 -25 2 2 124 375 271 829 148 454 270 830 272 836 3 9 -58 34 -85 34 -6 0 -15 -15 -21 -32z" style="fill: rgb(76, 139, 190);"/>
    <path d="M3402 5827 c-18 -5 -31 -15 -29 -21 2 -6 125 -382 272 -836 147 -454 269 -827 271 -829 4 -5 94 20 94 26 0 3 -117 366 -260 806 -144 441 -266 817 -271 835 -11 34 -22 37 -77 19z" style="fill: rgb(76, 139, 190);"/>
    <path d="M2080 2505 l0 -595 75 0 75 0 0 468 0 467 312 -467 311 -468 84 0 83 0 0 595 0 595 -80 0 -80 0 0 -462 0 -461 -308 459 -309 459 -81 3 -82 3 0 -596z" style="fill: rgb(254, 211, 61);"/>
    <path d="M2080 1115 l0 -595 80 0 80 0 0 280 0 280 310 0 310 0 0 -280 0 -280 80 0 80 0 0 595 0 595 -80 0 -80 0 0 -245 0 -245 -310 0 -310 0 0 245 0 245 -80 0 -80 0 0 -595z" style="fill: rgb(254, 211, 61);"/>
  </g>
</svg>